<mxfile host="app.diagrams.net" modified="2022-04-27T04:26:31.479Z" agent="5.0 (Windows NT 10.0; Win64; x64) AppleWebKit/537.36 (KHTML, like Gecko) Chrome/100.0.4896.127 Safari/537.36" etag="jg8nuzmUv_JLp0C0Sg8j" version="17.4.6" type="github">
  <diagram id="MvtSFpe1nV220Q8ig2OU" name="Page-1">
    <mxGraphModel dx="702" dy="743" grid="1" gridSize="10" guides="1" tooltips="1" connect="1" arrows="1" fold="1" page="1" pageScale="1" pageWidth="850" pageHeight="1100" math="0" shadow="0">
      <root>
        <mxCell id="0" />
        <mxCell id="1" parent="0" />
        <mxCell id="57m6rkmR8ILoyCV9Sq1S-1" value="" style="rounded=0;whiteSpace=wrap;html=1;" parent="1" vertex="1">
          <mxGeometry x="210" y="130" width="510" height="650" as="geometry" />
        </mxCell>
        <mxCell id="57m6rkmR8ILoyCV9Sq1S-2" value="Genre Management System" style="text;strokeColor=none;fillColor=none;html=1;fontSize=24;fontStyle=1;verticalAlign=middle;align=center;" parent="1" vertex="1">
          <mxGeometry x="216.25" y="130" width="497.5" height="50" as="geometry" />
        </mxCell>
        <mxCell id="57m6rkmR8ILoyCV9Sq1S-5" style="edgeStyle=orthogonalEdgeStyle;rounded=0;orthogonalLoop=1;jettySize=auto;html=1;entryX=0;entryY=0.5;entryDx=0;entryDy=0;fontSize=14;" parent="1" source="57m6rkmR8ILoyCV9Sq1S-6" target="57m6rkmR8ILoyCV9Sq1S-7" edge="1">
          <mxGeometry relative="1" as="geometry" />
        </mxCell>
        <mxCell id="57m6rkmR8ILoyCV9Sq1S-6" value="User" style="shape=umlActor;html=1;verticalLabelPosition=bottom;verticalAlign=top;align=center;" parent="1" vertex="1">
          <mxGeometry x="80" y="410" width="30" height="60" as="geometry" />
        </mxCell>
        <mxCell id="57m6rkmR8ILoyCV9Sq1S-7" value="&lt;font style=&quot;font-size: 17px&quot;&gt;Genre Page&lt;/font&gt;" style="ellipse;whiteSpace=wrap;html=1;" parent="1" vertex="1">
          <mxGeometry x="265" y="530" width="160" height="80" as="geometry" />
        </mxCell>
        <mxCell id="57m6rkmR8ILoyCV9Sq1S-10" value="Play a song of a genre" style="ellipse;whiteSpace=wrap;html=1;fontSize=17;" parent="1" vertex="1">
          <mxGeometry x="500" y="230" width="155" height="100" as="geometry" />
        </mxCell>
        <mxCell id="57m6rkmR8ILoyCV9Sq1S-18" value="&lt;font style=&quot;font-size: 17px&quot;&gt;View a genre&lt;/font&gt;" style="ellipse;whiteSpace=wrap;html=1;" parent="1" vertex="1">
          <mxGeometry x="265" y="390" width="160" height="80" as="geometry" />
        </mxCell>
        <mxCell id="57m6rkmR8ILoyCV9Sq1S-19" value="&lt;font style=&quot;font-size: 17px&quot;&gt;&amp;lt;&amp;lt;include&amp;gt;&amp;gt;&lt;/font&gt;" style="edgeStyle=none;html=1;endArrow=open;verticalAlign=bottom;dashed=1;labelBackgroundColor=none;rounded=0;entryX=0.5;entryY=1;entryDx=0;entryDy=0;exitX=0.5;exitY=0;exitDx=0;exitDy=0;" parent="1" source="57m6rkmR8ILoyCV9Sq1S-7" target="57m6rkmR8ILoyCV9Sq1S-18" edge="1">
          <mxGeometry width="160" relative="1" as="geometry">
            <mxPoint x="330" y="370" as="sourcePoint" />
            <mxPoint x="490" y="370" as="targetPoint" />
          </mxGeometry>
        </mxCell>
        <mxCell id="57m6rkmR8ILoyCV9Sq1S-22" value="&lt;font style=&quot;font-size: 17px&quot;&gt;Search within genre&lt;/font&gt;" style="ellipse;whiteSpace=wrap;html=1;" parent="1" vertex="1">
          <mxGeometry x="520" y="440" width="170" height="90" as="geometry" />
        </mxCell>
        <mxCell id="57m6rkmR8ILoyCV9Sq1S-25" value="&amp;lt;&amp;lt;extend&amp;gt;&amp;gt;" style="edgeStyle=none;html=1;startArrow=open;endArrow=none;startSize=12;verticalAlign=bottom;dashed=1;labelBackgroundColor=none;rounded=0;fontSize=17;entryX=0.5;entryY=0;entryDx=0;entryDy=0;exitX=0;exitY=0.5;exitDx=0;exitDy=0;" parent="1" source="57m6rkmR8ILoyCV9Sq1S-10" target="57m6rkmR8ILoyCV9Sq1S-18" edge="1">
          <mxGeometry width="160" relative="1" as="geometry">
            <mxPoint x="310" y="280" as="sourcePoint" />
            <mxPoint x="470" y="280" as="targetPoint" />
          </mxGeometry>
        </mxCell>
        <mxCell id="57m6rkmR8ILoyCV9Sq1S-26" value="&amp;lt;&amp;lt;extend&amp;gt;&amp;gt;" style="edgeStyle=none;html=1;startArrow=open;endArrow=none;startSize=12;verticalAlign=bottom;dashed=1;labelBackgroundColor=none;rounded=0;fontSize=17;entryX=1;entryY=0.5;entryDx=0;entryDy=0;exitX=0;exitY=0.5;exitDx=0;exitDy=0;" parent="1" source="57m6rkmR8ILoyCV9Sq1S-22" target="57m6rkmR8ILoyCV9Sq1S-18" edge="1">
          <mxGeometry width="160" relative="1" as="geometry">
            <mxPoint x="580" y="340" as="sourcePoint" />
            <mxPoint x="425" y="450" as="targetPoint" />
          </mxGeometry>
        </mxCell>
      </root>
    </mxGraphModel>
  </diagram>
</mxfile>
